# xmcd CD database file
#
# Track frame offsets:
#	150
#	26138
#	60642
#	87442
#	117023
#	162100
#	193325
#	224255
#
# Disc length: 3550 seconds
#
# Revision: 0
# Processed by: cddbd v1.4PL0 Copyright (c) Steve Scherf et al.
# Submitted via: CDex 1.50
#
DISCID=6d0ddc08
DTITLE=Astrid Cowan - Swing Team
DYEAR=1998
DGENRE=Jazz
TTITLE0=Thursday Night At Pasquales
TTITLE1=I've Got The World On A String
TTITLE2=Salida Del Sol
TTITLE3=Billie's Bounce
TTITLE4=A Child Is Born
TTITLE5=Silver's Sox
TTITLE6=I Love You
TTITLE7=How Deep Is The Ocean
EXTD=YEAR: 1998
EXTT0=
EXTT1=
EXTT2=
EXTT3=
EXTT4=
EXTT5=
EXTT6=
EXTT7=
PLAYORDER=
